<?xml version="1.0" encoding="UTF-8"?>
<!DOCTYPE svg PUBLIC "-//W3C//DTD SVG 1.1//EN" "http://www.w3.org/Graphics/SVG/1.1/DTD/svg11.dtd">
<!-- Creator: CorelDRAW X6 -->
<svg xmlns="http://www.w3.org/2000/svg" xml:space="preserve" width="2.25in" height="1.61111in" version="1.1" style="shape-rendering:geometricPrecision; text-rendering:geometricPrecision; image-rendering:optimizeQuality; fill-rule:evenodd; clip-rule:evenodd"
viewBox="0 0 2250 1611"
 xmlns:xlink="http://www.w3.org/1999/xlink">
 <defs>
  <style type="text/css">
   <![CDATA[
    .str0 {stroke:black;stroke-width:24.5433;stroke-linecap:round;stroke-linejoin:round}
    .fil2 {fill:none;fill-rule:nonzero}
    .fil0 {fill:#373435;fill-rule:nonzero}
    .fil1 {fill:#FEFEFE;fill-rule:nonzero}
   ]]>
  </style>
 </defs>
 <g id="Layer_x0020_1">
  <metadata id="CorelCorpID_0Corel-Layer"/>
  <path class="fil0" d="M659 1182c0,0 2,-5 6,-13 5,-8 11,-21 21,-36 10,-15 24,-33 42,-51 18,-18 40,-38 68,-54 28,-16 61,-31 99,-37 38,-6 81,-4 121,13 20,9 39,20 56,35 17,15 31,33 43,52 23,39 34,85 36,129 2,45 -5,89 -19,130 -7,20 -15,40 -25,59 -10,18 -21,37 -32,53 -24,34 -52,61 -81,84 -30,23 -61,39 -91,50 -15,5 -30,9 -45,12 -15,2 -29,3 -42,4 -13,0 -25,-1 -36,-3 -11,-2 -21,-5 -30,-8 -18,-6 -30,-13 -38,-18 -4,-2 -7,-5 -9,-6 -2,-1 -3,-2 -3,-2 0,0 5,2 14,6 9,3 22,7 39,10 17,3 38,3 62,0 23,-4 49,-11 75,-24 26,-13 52,-30 77,-53 24,-22 47,-49 66,-79 10,-16 19,-31 26,-48 8,-17 14,-34 20,-52 11,-36 16,-73 15,-110 -1,-37 -10,-73 -27,-104 -9,-15 -19,-29 -31,-41 -12,-11 -26,-21 -41,-29 -30,-15 -63,-19 -95,-17 -32,2 -62,12 -89,24 -13,6 -26,13 -37,20 -12,7 -22,14 -32,21 -19,15 -35,29 -47,42 -6,6 -11,12 -16,17 -4,5 -8,10 -11,13 -6,8 -9,12 -9,12z"/>
  <path class="fil0" d="M1014 1397c0,0 -2,3 -5,10 -2,3 -4,7 -6,12 -3,5 -6,10 -10,16 -8,12 -18,25 -32,39 -14,14 -31,29 -53,41 -21,12 -47,23 -75,28 -29,5 -61,3 -92,-10 -4,-2 -7,-4 -11,-5l-6 -3c-1,0 1,1 -1,-1l0 0 -1 0 -1 -1 -2 -2 -9 -6c-2,-1 -3,-2 -5,-4l-5 -4c-3,-3 -7,-6 -10,-9l-8 -10c-1,-2 -3,-3 -4,-5l-4 -5 -7 -11c-17,-30 -26,-64 -27,-98 -1,-34 4,-68 14,-99 10,-31 26,-60 44,-85 4,-6 9,-12 14,-18 2,-3 5,-6 7,-9 3,-3 5,-5 8,-8 3,-3 5,-5 8,-8 3,-3 5,-5 8,-7 6,-5 11,-10 17,-14 22,-17 46,-30 70,-39 23,-8 46,-12 66,-12 10,0 19,0 28,2 4,1 8,1 12,2 4,1 7,2 11,3 7,2 12,5 17,7 5,2 9,5 12,7 6,4 10,6 10,6 0,0 -4,-1 -11,-4 -3,-1 -8,-3 -13,-4 -5,-1 -11,-3 -18,-4 -3,0 -7,-1 -10,-1 -4,-1 -8,0 -12,0 -8,-1 -17,1 -26,1 -18,3 -38,9 -59,18 -20,10 -41,23 -60,41 -5,4 -9,9 -14,14 -2,2 -5,5 -7,7 -2,3 -4,5 -6,8 -2,3 -4,5 -7,8 -2,3 -4,5 -6,8 -4,5 -8,10 -12,17 -15,24 -28,50 -36,78 -8,28 -13,57 -12,86 1,29 8,57 21,81l5 9 3 4c1,1 2,3 3,4l6 8c2,3 4,4 7,7l3 3c1,1 2,2 4,3l9 7 2 2 1 1 1 0 0 0c-2,-1 0,0 -1,0l4 2c3,2 6,3 9,5 23,11 50,15 74,13 25,-2 48,-9 69,-19 5,-3 10,-5 15,-7 5,-3 9,-6 14,-8 5,-2 9,-6 13,-8 4,-3 8,-5 12,-8 15,-12 27,-23 36,-33 5,-5 9,-9 12,-13 3,-4 6,-8 8,-11 5,-6 7,-9 7,-9z"/>
  <path class="fil0" d="M327 1368c0,0 -2,3 -5,9 -2,3 -3,6 -6,11 -2,4 -5,9 -9,14 -3,5 -7,11 -12,17 -4,6 -10,12 -16,19 -3,3 -6,6 -9,10 -3,3 -7,7 -10,10 -8,6 -16,13 -25,19 -18,12 -40,23 -66,29 -25,6 -55,6 -83,-6 -3,-2 -7,-3 -10,-5l-5 -3c-1,0 1,1 -1,-1l0 0 -1 0 -1 -1 -2 -1 -8 -6c-3,-2 -6,-5 -9,-8 -7,-6 -11,-12 -16,-18 -3,-3 -4,-6 -7,-10 -2,-3 -4,-7 -6,-10 -14,-28 -20,-59 -20,-89 0,-30 6,-60 16,-88 10,-27 24,-53 39,-75 3,-5 8,-11 12,-16 2,-3 4,-5 7,-8 2,-2 5,-5 7,-7 9,-10 19,-19 28,-27 19,-16 40,-28 61,-36 20,-8 40,-13 58,-14 4,0 9,0 13,0 2,0 4,0 6,0 2,0 4,1 6,1 4,1 7,1 11,2 3,1 7,2 10,3 6,1 11,4 16,6 2,1 4,2 6,3 2,1 3,2 5,3 5,4 8,6 8,6 0,0 -3,-1 -9,-4 -2,-1 -3,-1 -5,-2 -2,-1 -4,-1 -6,-2 -5,-1 -10,-3 -16,-3 -3,0 -6,-1 -9,-1 -3,0 -7,0 -10,0 -2,0 -4,0 -5,0 -2,0 -4,0 -6,1 -4,1 -8,1 -12,2 -4,1 -8,2 -12,3 -4,1 -8,3 -13,4 -4,1 -8,3 -13,5 -2,1 -4,2 -7,3 -2,1 -4,2 -6,4 -17,10 -35,22 -51,38 -8,8 -16,16 -24,26 -2,2 -4,5 -6,7 -2,2 -3,5 -5,7 -3,5 -7,9 -10,15 -13,21 -25,44 -33,68 -8,24 -13,50 -13,76 0,25 5,50 15,72 1,3 3,5 4,8 2,2 3,5 5,7 4,4 7,9 11,13 2,2 3,4 6,6l8 6 2 1 1 1 0 0 0 0c-2,-1 0,0 -1,-1l4 2 7 4c20,9 43,11 65,9 22,-3 42,-10 60,-19 18,-9 33,-20 46,-30 6,-5 12,-10 18,-15 5,-5 10,-9 14,-14 4,-4 8,-8 11,-12 3,-4 6,-7 8,-9 4,-5 6,-8 6,-8z"/>
  <path class="fil0" d="M20 1183c0,0 2,-4 6,-12 2,-4 4,-9 7,-14 3,-5 7,-11 11,-18 9,-14 21,-29 36,-46 16,-16 35,-34 60,-49 25,-15 54,-28 88,-33 34,-6 72,-4 109,11 4,2 9,4 13,6l7 3 3 2 1 1 3 2c4,2 7,5 11,7 2,1 4,3 6,5l6 5c4,4 8,7 12,11l10 12c2,2 3,4 5,6l4 6 9 13c21,35 31,76 32,116 2,40 -5,79 -17,116 -3,9 -7,18 -10,27 -4,9 -8,17 -12,26 -4,8 -9,16 -14,24l-2 3 -1 1 0 1 -1 1 0 0 -4 5c-2,3 -5,7 -7,10 -4,7 -11,14 -17,21 -3,4 -6,7 -9,10 -3,3 -6,6 -9,9 -3,3 -6,6 -9,9 -3,3 -6,6 -10,9 -6,6 -13,11 -19,16 -26,20 -54,35 -82,44 -27,9 -54,13 -77,13 -12,-1 -23,-1 -32,-3 -5,-1 -10,-2 -14,-3 -4,-1 -8,-3 -12,-4 -8,-2 -14,-6 -20,-9 -3,-2 -5,-2 -8,-4 -2,-1 -4,-3 -6,-4 -7,-5 -11,-7 -11,-7 0,0 4,2 12,4 2,1 4,2 7,2 2,1 5,1 8,2 3,1 6,1 9,2 3,1 7,1 11,2 4,0 8,1 12,1 4,0 9,0 13,0 9,0 19,-1 29,-2 21,-4 43,-11 66,-22 23,-11 46,-27 67,-47 6,-5 10,-10 16,-15 3,-3 5,-5 8,-8 2,-3 5,-6 7,-9 2,-3 5,-6 7,-9 2,-3 4,-6 7,-9 4,-6 9,-12 13,-19 2,-4 4,-7 7,-11l3 -5 0 0c-1,2 0,0 0,1l0 -1 1 -1 1 -3c4,-7 8,-14 11,-21 3,-7 6,-15 9,-22 3,-8 5,-15 8,-23 9,-31 14,-64 13,-97 -1,-32 -9,-64 -23,-90l-6 -9 -3 -5c-1,-2 -2,-3 -3,-4l-7 -9c-2,-3 -5,-5 -7,-7l-3 -4c-1,-1 -2,-2 -4,-4 -4,-3 -7,-5 -10,-8l-3 -2 -1 -1 -1 0 0 0c3,2 1,0 1,1l-5 -3c-3,-2 -6,-4 -9,-5 -26,-13 -55,-17 -82,-15 -28,2 -54,10 -78,20 -6,3 -12,5 -17,8 -5,3 -11,6 -16,9 -5,3 -10,6 -15,9 -5,3 -9,6 -14,9 -17,13 -31,25 -42,37 -5,6 -10,11 -15,15 -4,5 -7,9 -10,12 -6,6 -9,10 -9,10z"/>
  <path class="fil0" d="M669 1096c0,0 5,2 13,6 4,2 9,4 14,7 5,3 11,6 18,11 13,8 27,18 41,31 14,13 26,28 40,42 14,14 28,28 41,42 13,13 25,26 35,36 10,11 19,19 26,25 2,1 3,3 4,4 1,1 2,2 3,2 2,1 3,2 3,2l-2 4c0,0 -1,-1 -3,-2 -1,-1 -3,-1 -4,-2 -1,-1 -3,-2 -5,-3 -4,-2 -8,-5 -13,-8 -5,-3 -11,-7 -17,-11 -12,-8 -27,-19 -42,-30 -15,-11 -31,-23 -46,-36 -8,-6 -16,-12 -24,-18 -8,-6 -16,-12 -23,-18 -14,-12 -25,-26 -35,-38 -5,-6 -9,-12 -12,-17 -3,-5 -6,-10 -9,-14 -5,-8 -7,-13 -7,-13l3 -3z"/>
  <path class="fil0" d="M250 841c0,0 17,-8 48,-19 15,-5 34,-12 56,-19 22,-6 47,-13 74,-19 28,-6 58,-11 90,-15 32,-4 66,-6 102,-7 35,0 72,2 109,6 37,5 75,13 112,25 18,6 37,13 54,23 9,5 17,10 26,17 4,4 8,7 12,12 4,5 8,11 10,19 1,4 2,9 1,14 -1,5 -2,10 -5,14 -5,8 -11,12 -17,16 -6,3 -11,5 -16,7 -5,2 -11,3 -15,3 -18,3 -35,7 -52,10 -34,6 -68,11 -99,16 -31,5 -61,10 -88,15 -27,5 -52,10 -72,18 -5,2 -9,4 -12,6 -1,1 -2,2 -3,2 0,0 0,0 0,-1 0,0 0,1 0,1 0,0 0,0 0,0 0,0 0,0 0,1 0,2 1,6 3,9 2,3 4,7 7,10 9,13 18,22 24,29 6,7 9,10 9,10 0,0 -4,-2 -12,-7 -4,-2 -8,-5 -14,-9 -5,-4 -12,-8 -18,-13 -3,-3 -7,-6 -10,-10 -3,-4 -7,-8 -9,-16 0,-1 0,-2 -1,-3l0 -2 0 -1c0,-3 1,-6 2,-8 2,-4 5,-7 8,-9 5,-4 11,-7 16,-10 22,-10 47,-17 75,-24 27,-7 57,-13 88,-20 31,-6 64,-13 99,-20 17,-3 34,-7 52,-11 5,-1 8,-2 12,-3 3,-1 6,-2 9,-4 2,-1 3,-3 3,-2 0,0 -1,2 -1,2 0,-1 -1,-3 -3,-5 -2,-2 -4,-5 -7,-7 -6,-5 -13,-9 -20,-13 -15,-8 -31,-15 -48,-21 -34,-12 -69,-19 -104,-25 -35,-6 -71,-9 -105,-10 -34,-1 -68,-1 -99,1 -31,2 -61,5 -89,8 -27,4 -53,8 -75,12 -22,4 -41,8 -57,12 -16,4 -28,7 -37,9 -8,2 -13,3 -13,3z"/>
  <path class="fil0" d="M294 1244c0,0 1,-2 2,-5 1,-3 3,-8 6,-15 5,-13 13,-30 23,-51 10,-21 23,-45 37,-70 7,-13 14,-25 22,-38 8,-13 16,-26 24,-39 8,-13 16,-26 25,-38 8,-13 17,-25 25,-37 16,-24 33,-45 47,-63 14,-18 27,-33 36,-43 9,-10 14,-16 14,-16 0,0 -3,7 -8,20 -5,13 -13,30 -23,51 -10,21 -23,45 -37,70 -7,13 -14,25 -22,38 -8,13 -16,26 -24,39 -8,13 -16,26 -25,38 -8,13 -17,25 -25,37 -17,24 -33,45 -47,63 -14,18 -27,33 -36,43 -4,5 -8,9 -11,12 -3,3 -4,4 -4,4z"/>
  <path class="fil1" d="M1486 1013l-19 0 0 -40 -13 0 0 -92 -28 0 0 -105c10,-8 15,-17 15,-27 0,0 0,-1 0,-1 0,0 0,-1 0,-1 0,-13 -10,-26 -28,-36l0 -20c7,-7 11,-14 11,-22 0,-1 0,-3 0,-4 0,-1 0,-3 0,-4 0,-15 -14,-29 -39,-40l3 0 0 -31c4,-6 6,-12 6,-18 0,-1 0,-2 0,-3 0,-1 0,-2 0,-3 0,-12 -8,-23 -21,-33l0 -39c0,-27 -41,-49 -97,-55l0 -218c0,-8 -5,-15 -13,-19l0 -30c0,-7 -7,-13 -16,-14l0 -51 -5 0 0 51c-9,1 -16,7 -16,14l0 30c-8,4 -13,11 -13,19l0 218c-56,6 -97,28 -97,55l0 39c-13,10 -21,21 -21,33 0,1 0,2 0,3 0,1 0,2 0,3 0,10 5,19 13,27l0 21c-27,11 -44,26 -44,42 0,1 0,3 0,4 0,1 0,3 0,4 0,8 4,16 12,24l0 18c-19,11 -30,23 -30,37 0,0 0,1 0,1 0,0 0,1 0,1 0,10 6,20 17,29l0 109 -27 0 0 85 -13 0 0 40 -20 0 0 5 191 0c-2,5 -3,11 -3,16 0,29 24,52 52,52 29,0 52,-23 52,-52 0,-6 -1,-11 -3,-16l192 0 0 -5z"/>
  <path class="fil0" d="M1251 613c88,0 160,22 175,50 2,-3 3,-7 3,-10 0,-34 -79,-61 -177,-61 -98,0 -177,27 -177,61 0,3 1,7 3,10 14,-29 87,-50 175,-50z"/>
  <path class="fil0" d="M1251 515c74,0 135,23 146,52 1,-3 2,-6 2,-9 0,-34 -66,-61 -147,-61 -81,0 -147,27 -147,61 0,3 1,6 2,9 10,-30 72,-52 146,-52z"/>
  <path class="fil0" d="M1278 764c-1,-6 -3,-11 -7,-14 -3,-4 -7,-7 -12,-8 -4,-2 -9,-2 -13,-1l-4 1 -2 1c-1,0 -3,2 -5,3 -3,3 -5,6 -7,10 0,2 -1,4 -1,6 0,1 0,2 0,3l0 4c0,11 1,22 1,33 1,22 0,44 0,66 -1,22 -2,44 -4,66l-8 -8c20,2 41,4 61,8 -20,4 -41,6 -61,8l-7 1 -1 -9c-2,-22 -3,-44 -4,-66 0,-22 -1,-44 0,-66 0,-11 1,-22 1,-33l0 -4c0,-2 0,-4 1,-5 1,-4 2,-7 4,-10 3,-7 9,-12 14,-16 3,-2 6,-3 10,-4 2,0 4,-1 6,-1l4 0c7,0 14,2 19,6 6,3 10,9 12,14 3,6 3,12 2,17z"/>
  <path class="fil0" d="M1393 787c-1,-5 -3,-10 -5,-14 -2,-4 -5,-8 -8,-9 -1,0 -1,0 -2,-1 -1,0 -1,0 -2,0l0 0c0,0 2,0 1,0l0 0 0 0 0 0 -1 0c-1,0 -1,0 -2,1 0,1 0,1 0,1 -2,2 -3,6 -4,9 -1,4 -1,8 -1,12 0,5 1,10 1,15 1,10 1,20 1,29 0,10 0,20 0,29 0,10 0,20 -1,29 0,10 -1,20 -2,29 -1,10 -2,20 -3,29l-6 -6c11,2 23,3 34,6 -11,3 -23,4 -34,6l-5 1 -1 -7c-1,-10 -2,-20 -3,-29 -1,-10 -2,-20 -2,-29 -1,-10 -1,-20 -1,-29 0,-10 0,-20 0,-29 0,-10 0,-20 1,-29 0,-5 0,-10 1,-15 1,-6 2,-12 4,-17 2,-6 6,-11 12,-15 2,-1 4,-2 6,-3l5 0c4,0 7,2 10,5 5,5 7,10 8,16 1,5 0,11 -1,15z"/>
  <path class="fil0" d="M1147 787c-1,-5 -3,-10 -5,-14 -2,-4 -5,-8 -8,-9 -1,0 -1,0 -2,-1 -1,0 -1,0 -2,0l0 0c2,0 1,0 1,0l0 0 0 0 0 0 -1 0c-1,0 -1,0 -2,1 0,1 0,1 0,1 -2,2 -3,6 -4,9 -1,4 -1,8 -1,12 0,5 1,10 1,15 1,10 1,20 1,29 0,10 0,20 0,29 0,10 0,20 -1,29 0,10 -1,20 -2,29 -1,10 -2,20 -3,29l-6 -6c11,2 23,3 34,6 -11,3 -23,4 -34,6l-5 1 -1 -7c-1,-10 -2,-20 -3,-29 -1,-10 -2,-20 -2,-29 -1,-10 -1,-20 -1,-29 0,-10 0,-20 0,-29 0,-10 0,-20 1,-29 0,-5 0,-10 1,-15 1,-6 2,-12 4,-17 2,-6 6,-11 12,-15 2,-1 4,-2 6,-3 1,0 1,0 2,0l3 0c4,0 7,2 10,5 5,5 7,10 8,16 1,5 0,11 -1,15z"/>
  <path class="fil0" d="M1251 698c95,0 175,23 191,54 2,-4 3,-8 3,-12 0,-37 -87,-67 -195,-67 -108,0 -195,30 -195,67 0,4 1,8 3,12 17,-31 96,-54 191,-54z"/>
  <path class="fil2 str0" d="M1488 1013l-19 -5 0 -40 -13 0 0 -92 -27 0 0 -105c10,-8 15,-17 15,-27 0,0 0,-1 0,-1 0,0 0,-1 0,-1 0,-13 -10,-26 -28,-36l0 -20c7,-7 11,-14 11,-22 0,-1 0,-3 0,-4 0,-1 0,-3 0,-4 0,-15 -15,-29 -39,-40l3 0 0 -31c4,-6 6,-12 6,-18 0,-1 0,-2 0,-3 0,-1 0,-2 0,-3 0,-12 -8,-23 -21,-33l0 -39c0,-27 -41,-49 -97,-55l0 -218c0,-8 -5,-15 -13,-19l-37 0c-8,4 -13,11 -13,19l0 218c-56,6 -97,28 -97,55l0 39c-13,10 -21,21 -21,33 0,1 0,2 0,3 0,1 0,2 0,3 0,10 5,19 13,27l0 20c-27,11 -44,26 -44,42 0,1 0,3 0,4 0,1 0,3 0,4 0,8 4,16 12,24l0 18c-19,11 -30,23 -30,37 0,0 0,1 0,1 0,0 0,1 0,1 0,10 6,20 17,29l0 109 -27 0 0 85 -13 0 0 40 -20 0 0 5"/>
  <path class="fil0" d="M1279 1184c13,0 22,2 29,7 7,5 10,12 10,22 0,5 -1,9 -3,13 -2,4 -4,7 -8,9 -3,2 -8,4 -13,5 -5,1 -11,2 -17,2l-8 0 0 30 -16 0 0 -85c4,-1 8,-1 12,-2 4,0 9,0 12,0zm1 14c-4,0 -7,0 -10,0l0 29 8 0c8,0 13,-1 18,-3 4,-2 6,-6 6,-12 0,-3 -1,-5 -2,-7 -1,-2 -3,-3 -4,-5 -2,-1 -4,-2 -7,-2 -3,0 -5,-1 -8,-1z"/>
  <path class="fil0" d="M1396 1271c-1,-3 -2,-7 -4,-10 -1,-3 -2,-7 -4,-10l-37 0c-1,4 -2,7 -4,10 -1,3 -2,7 -4,10l-16 0c3,-9 6,-18 9,-26 3,-8 6,-15 9,-22 3,-7 6,-14 8,-20 3,-6 6,-13 8,-19l15 0c3,6 6,12 9,19 3,6 6,13 8,20 3,7 6,14 9,22 3,8 6,16 9,26l-17 0zm-26 -70c-2,4 -4,10 -7,16 -2,6 -5,13 -8,21l28 0c-3,-7 -5,-14 -8,-21 -2,-6 -5,-12 -6,-16z"/>
  <polygon class="fil0" points="1490,1184 1506,1184 1506,1271 1490,1271 1490,1233 1453,1233 1453,1271 1437,1271 1437,1184 1453,1184 1453,1219 1490,1219 "/>
  <path class="fil0" d="M1530 1258l11 0c4,-5 7,-11 9,-16 2,-6 4,-12 5,-18 1,-6 2,-12 2,-19 0,-7 0,-13 0,-20l53 0 0 73 13 0 0 37 -15 0 0 -23 -62 0 0 23 -15 0 0 -37zm41 -60c0,5 -1,10 -1,15 0,5 -1,10 -2,16 -1,5 -2,10 -4,15 -2,5 -4,9 -7,14l35 0 0 -60 -23 0z"/>
  <path class="fil0" d="M1726 1228c0,7 -1,14 -3,20 -2,6 -5,10 -9,14 -4,4 -8,7 -13,9 -5,2 -11,3 -16,3 -6,0 -11,-1 -16,-3 -5,-2 -10,-5 -13,-9 -4,-4 -7,-9 -9,-14 -2,-6 -3,-12 -3,-20 0,-7 1,-14 3,-20 2,-6 5,-10 9,-14 4,-4 8,-7 13,-9 5,-2 10,-3 16,-3 6,0 11,1 16,3 5,2 10,5 13,9 4,4 7,9 9,14 2,6 3,12 3,20zm-68 0c0,5 1,9 2,13 1,4 3,7 5,10 2,3 5,5 8,6 3,2 7,2 11,2 4,0 7,-1 11,-2 3,-1 6,-4 8,-6 2,-3 4,-6 5,-10 1,-4 2,-8 2,-13 0,-5 -1,-9 -2,-13 -1,-4 -3,-7 -5,-10 -2,-3 -5,-5 -8,-6 -3,-2 -7,-2 -11,-2 -4,0 -8,1 -11,2 -3,2 -6,4 -8,6 -2,3 -4,6 -5,10 -1,4 -2,8 -2,13z"/>
  <polygon class="fil0" points="1809,1184 1825,1184 1825,1271 1809,1271 1809,1233 1771,1233 1771,1271 1756,1271 1756,1184 1771,1184 1771,1219 1809,1219 "/>
  <polygon class="fil0" points="1911,1184 1927,1184 1927,1271 1911,1271 1911,1233 1874,1233 1874,1271 1858,1271 1858,1184 1874,1184 1874,1219 1911,1219 "/>
  <polygon class="fil0" points="1960,1271 1960,1184 2016,1184 2016,1198 1976,1198 1976,1219 2012,1219 2012,1232 1976,1232 1976,1258 2019,1258 2019,1271 "/>
  <path class="fil0" d="M2071 1184c13,0 22,2 29,7 7,5 10,12 10,22 0,5 -1,9 -3,13 -2,4 -4,7 -8,9 -3,2 -8,4 -13,5 -5,1 -11,2 -17,2l-8 0 0 30 -16 0 0 -85c4,-1 8,-1 12,-2 4,0 9,0 12,0zm1 14c-4,0 -7,0 -10,0l0 29 8 0c8,0 13,-1 18,-3 4,-2 6,-6 6,-12 0,-3 -1,-5 -2,-7 -1,-2 -3,-3 -4,-5 -2,-1 -4,-2 -7,-2 -3,0 -5,-1 -8,-1z"/>
  <path class="fil0" d="M2199 1244c0,5 -1,9 -3,12 -2,4 -4,6 -8,9 -3,2 -7,4 -12,5 -5,1 -10,2 -16,2 -4,0 -7,0 -12,-1 -4,0 -8,-1 -12,-2l0 -85 16 0 0 31c1,0 3,0 4,0 1,0 2,0 4,0 13,0 23,2 30,7 7,5 10,12 10,21zm-41 -15c-1,0 -2,0 -3,0 -1,0 -2,0 -3,0l0 29c1,0 2,0 4,0 1,0 3,0 6,0 3,0 6,0 8,-1 3,0 5,-1 7,-2 2,-1 3,-3 5,-4 1,-2 2,-4 2,-7 0,-3 -1,-5 -2,-7 -1,-2 -3,-3 -5,-5 -2,-1 -5,-2 -8,-2 -3,0 -6,-1 -10,-1zm52 -44l16 0 0 87 -16 0 0 -87z"/>
  <path class="fil0" d="M1254 1421l0 -87 16 0 0 57c3,-4 6,-9 10,-15 4,-5 7,-10 11,-16 4,-5 8,-10 12,-15 4,-5 7,-9 11,-12l13 0 0 87 -16 0 0 -62c-4,4 -7,9 -11,14 -4,5 -8,11 -11,16 -4,6 -7,11 -11,17 -4,5 -7,11 -9,15l-13 0z"/>
  <path class="fil0" d="M1359 1409c3,-4 6,-8 9,-12 3,-4 6,-8 9,-11 3,-4 6,-7 10,-10 -6,-7 -12,-13 -18,-20 -6,-7 -11,-14 -16,-20l19 0c4,6 9,12 14,18 5,6 10,12 15,19l0 -37 15 0 0 37c5,-6 10,-13 15,-19 5,-6 10,-12 14,-18l19 0c-5,7 -11,14 -17,21 -6,7 -12,14 -17,20 7,6 13,13 19,21 6,8 11,16 16,25l-18 0c-5,-8 -10,-15 -15,-22 -5,-7 -11,-13 -16,-18l0 40 -15 0 0 -40c-6,6 -11,12 -16,19 -5,7 -10,14 -15,22l-18 0c2,-4 5,-8 7,-12z"/>
  <polygon class="fil0" points="1490,1421 1490,1334 1546,1334 1546,1348 1506,1348 1506,1369 1541,1369 1541,1382 1506,1382 1506,1408 1549,1408 1549,1421 "/>
  <path class="fil0" d="M1602 1422c-5,0 -9,0 -14,0 -5,0 -9,-1 -12,-2l0 -84c2,0 4,-1 6,-1 2,0 4,-1 6,-1 2,0 4,0 6,0 2,0 4,0 6,0 5,0 10,0 15,1 5,1 8,2 12,4 3,2 6,4 8,7 2,3 3,7 3,11 0,4 -1,8 -3,10 -2,3 -5,5 -8,7 5,2 9,4 12,8 2,3 4,8 4,13 0,9 -3,16 -10,20 -7,4 -16,7 -30,7zm-11 -52l11 0c6,0 11,-1 14,-3 3,-2 5,-5 5,-9 0,-4 -2,-7 -5,-9 -4,-2 -8,-3 -14,-3 -2,0 -5,0 -6,0 -2,0 -3,0 -5,0l0 23zm0 12l0 26c2,0 4,0 6,0 2,0 4,0 6,0 3,0 6,0 9,-1 3,0 5,-1 7,-2 2,-1 4,-2 5,-4 1,-2 2,-4 2,-7 0,-5 -2,-8 -5,-10 -4,-2 -9,-3 -15,-3l-14 0z"/>
  <path class="fil0" d="M1709 1423c-7,0 -12,-1 -18,-3 -5,-2 -10,-5 -13,-9 -4,-4 -6,-9 -8,-14 -2,-6 -3,-12 -3,-19 0,-7 1,-14 3,-19 2,-6 5,-10 9,-14 4,-4 8,-7 13,-9 5,-2 11,-3 17,-3 4,0 7,0 10,1 3,1 5,1 8,2 2,1 4,1 5,2 1,1 2,1 3,2l-5 13c-2,-1 -5,-2 -9,-4 -4,-1 -8,-2 -12,-2 -4,0 -7,1 -11,2 -3,1 -6,3 -8,6 -2,3 -4,6 -6,10 -1,4 -2,8 -2,14 0,5 1,9 2,13 1,4 3,7 5,10 2,3 5,5 8,7 3,2 7,2 12,2 6,0 10,-1 14,-2 4,-1 6,-2 8,-3l4 13c-1,1 -2,1 -4,2 -2,1 -4,1 -6,2 -2,1 -5,1 -8,2 -3,0 -6,1 -9,1z"/>
  <path class="fil0" d="M1815 1421c-2,-3 -5,-7 -8,-10 -3,-4 -6,-7 -9,-11 -3,-3 -6,-7 -10,-10 -3,-3 -7,-6 -10,-8l0 39 -16 0 0 -87 16 0 0 36c3,-3 6,-6 9,-9 3,-3 6,-6 9,-10 3,-3 6,-6 8,-9 3,-3 5,-6 7,-8l19 0c-3,3 -6,6 -9,10 -3,3 -6,7 -10,10 -3,3 -7,7 -10,10 -3,3 -7,7 -10,10 4,3 7,6 11,9 4,4 7,7 11,11 4,4 7,8 10,13 3,4 6,9 9,13l-19 0z"/>
  <path class="fil0" d="M1918 1421c-1,-3 -2,-7 -4,-10 -1,-3 -2,-7 -4,-10l-37 0c-1,4 -2,7 -4,10 -1,3 -2,7 -4,10l-16 0c3,-9 6,-18 9,-26 3,-8 6,-15 9,-22 3,-7 6,-14 8,-20 3,-6 6,-13 8,-19l15 0c3,6 6,12 9,19 3,6 6,13 8,20 3,7 6,14 9,22 3,8 6,16 9,26l-17 0zm-26 -70c-2,4 -4,10 -7,16 -2,6 -5,13 -8,21l29 0c-3,-7 -5,-14 -8,-21 -2,-6 -5,-12 -6,-16z"/>
  <path class="fil0" d="M1720 904l-2 1c0,1 0,1 -1,2l3 -3z"/>
  <path class="fil0" d="M1718 906l-265 2c1,3 2,18 2,21l271 -2c0,0 39,-115 47,-169 8,-53 10,-107 5,-161 -1,-13 -3,-27 -5,-40l-2 -10 -2 -10 -4 -20c-3,-13 -6,-26 -10,-40 -4,-13 -7,-26 -12,-39 -18,-51 -42,-100 -71,-145 -30,-45 -65,-87 -105,-124 -40,-37 -84,-69 -132,-95 -48,-26 -98,-47 -151,-60 -51,-13 -103,-21 -156,-21l-19 0c-50,1 -100,7 -147,18 -53,13 -104,32 -152,57 -48,25 -93,56 -134,92 -40,36 -76,77 -107,122 -30,45 -55,93 -74,143 -19,50 -31,103 -37,156 -5,53 -4,107 3,160 2,16 5,31 8,47 2,-1 4,-1 5,-2 0,-2 -1,-5 -1,-7 -2,-13 -4,-26 -5,-39 -5,-52 -4,-105 3,-157 8,-52 21,-103 41,-151 20,-48 45,-95 75,-137 31,-42 66,-81 106,-115 40,-34 83,-63 129,-86 46,-23 96,-41 146,-53 51,-12 103,-17 155,-17 52,0 103,8 154,21 50,13 99,32 144,57 46,24 88,55 127,90 39,34 73,74 102,117 29,43 52,90 71,138 5,12 8,25 13,37 3,12 7,25 10,37l4 19 2 9 2 10c2,13 4,26 6,39 6,52 6,104 -1,156 -7,51 -20,102 -38,150z"/>
 </g>
</svg>
